<svg width="39" height="37" viewBox="0 0 39 37" fill="none" xmlns="http://www.w3.org/2000/svg">
<path d="M19.5 6.48842e-08C15.6432 6.48842e-08 11.8732 1.08475 8.6664 3.11708C5.45964 5.14942 2.96028 8.03803 1.48436 11.4177C0.00844534 14.7973 -0.377714 18.5162 0.374695 22.104C1.1271 25.6918 2.98431 28.9873 5.71145 31.5741C8.43856 34.1608 11.9131 35.9223 15.6957 36.636C19.4785 37.3496 23.3992 36.9834 26.9624 35.5834C30.5255 34.1835 33.571 31.8129 35.7137 28.7713C37.8565 25.7297 39 22.1537 39 18.4957C39.0004 16.0668 38.4961 13.6615 37.5162 11.4175C36.5364 9.17335 35.1 7.13433 33.2892 5.41681C31.4783 3.69928 29.3286 2.33691 26.9626 1.40748C24.5967 0.478057 22.0609 -0.000203387 19.5 6.48842e-08ZM25.7002 28.0256C25.6271 28.1981 25.5161 28.3539 25.3743 28.4826C25.2328 28.6111 25.0637 28.7095 24.8787 28.7711C24.6936 28.8327 24.4968 28.856 24.3017 28.8396C24.1063 28.8231 23.9169 28.7672 23.7463 28.6757L18.4526 24.7742L15.055 27.7472C14.9762 27.8025 14.884 27.838 14.7869 27.8506C14.6898 27.8632 14.5909 27.8524 14.4993 27.8191L15.1506 22.2919L15.1715 22.3076L15.1848 22.1985C15.1848 22.1985 24.7106 13.9725 25.0986 13.622C25.4915 13.2724 25.3619 13.1966 25.3619 13.1966C25.3843 12.7702 24.6569 13.1966 24.6569 13.1966L12.0354 20.8983L6.77923 19.2004C6.77923 19.2004 5.97193 18.9257 5.89588 18.3218C5.81593 17.7225 6.80553 17.397 6.80553 17.397L27.7036 9.52248C27.7036 9.52248 29.4216 8.79648 29.4216 9.99876L25.7002 28.0256Z" fill="#1F1E45"/>
</svg>
