<svg width="202" height="136" viewBox="0 0 202 136" fill="none" xmlns="http://www.w3.org/2000/svg">
<path d="M44.4189 1.78503C52.8493 1.78503 60.3465 3.65005 66.8809 7.4071C73.4041 11.1017 78.5212 16.2178 82.2158 22.7411H82.2148C85.9724 29.2758 87.8379 36.7731 87.8379 45.204V87.1161C87.8379 95.5467 85.9721 103.044 82.2148 109.578C78.521 116.1 73.4078 121.244 66.8877 124.994L66.8818 124.997C60.3469 128.698 52.8495 130.535 44.4189 130.535C35.9884 130.535 28.491 128.698 21.9561 124.997L21.9502 124.994C15.4315 121.244 10.2907 116.104 6.54102 109.585L6.53809 109.579C2.8369 103.044 1.00001 95.5466 1 87.1161V45.204C1.00001 36.7735 2.8369 29.276 6.53809 22.7411L6.54102 22.7352C10.2915 16.2152 15.4341 11.1009 21.9561 7.4071C28.4906 3.64974 35.9882 1.78504 44.4189 1.78503ZM145.568 4.32019V128H125.57V26.5341L104.19 39.5516L102.671 40.4774V18.4413L103.157 18.1503L126.057 4.46179L126.294 4.32019H145.568ZM44.4189 20.6005C40.0832 20.6005 36.1478 21.6549 32.5908 23.7567L32.5869 23.7596C29.075 25.8128 26.2673 28.619 24.1553 32.1932L24.1514 32.1981C22.0529 35.6956 20.9981 39.6006 20.998 43.9364V88.2147C20.9981 92.6091 22.0546 96.5718 24.1553 100.127H24.1543C26.2655 103.644 29.0749 106.452 32.5918 108.563C36.1474 110.608 40.0826 111.635 44.4189 111.635C48.4884 111.635 52.1776 110.731 55.5059 108.932L56.167 108.56C59.7395 106.448 62.5734 103.64 64.6826 100.127C66.7833 96.5718 67.8398 92.6092 67.8398 88.2147V43.9364C67.8398 39.6006 66.785 35.6956 64.6865 32.1981L64.6826 32.1932C62.5728 28.6228 59.7402 25.8166 56.1729 23.7626L56.165 23.7577L56.1572 23.7538C52.6597 21.6553 48.7548 20.6005 44.4189 20.6005Z" stroke="url(#paint0_linear_368_370)" stroke-width="2"/>
<rect y="76" width="202" height="60" fill="url(#paint1_linear_368_370)"/>
<defs>
<linearGradient id="paint0_linear_368_370" x1="70.3346" y1="34.6646" x2="134.182" y2="90.7404" gradientUnits="userSpaceOnUse">
<stop stop-color="white"/>
<stop offset="0.576923" stop-color="white" stop-opacity="0.28"/>
</linearGradient>
<linearGradient id="paint1_linear_368_370" x1="101.577" y1="92" x2="101.577" y2="121.5" gradientUnits="userSpaceOnUse">
<stop stop-color="#0C0620" stop-opacity="0"/>
<stop offset="1" stop-color="#0C0620"/>
</linearGradient>
</defs>
</svg>
