<svg width="202" height="137" viewBox="0 0 202 137" fill="none" xmlns="http://www.w3.org/2000/svg">
<path d="M44.4189 1C52.8493 1 60.3465 2.86501 66.8809 6.62207C73.4041 10.3167 78.5212 15.4328 82.2158 21.9561H82.2148C85.9724 28.4907 87.8379 35.988 87.8379 44.4189V86.3311C87.8379 94.7616 85.9721 102.258 82.2148 108.793C78.521 115.315 73.4078 120.458 66.8877 124.209L66.8818 124.212C60.3469 127.913 52.8495 129.75 44.4189 129.75C35.9884 129.75 28.491 127.913 21.9561 124.212L21.9502 124.209C15.4315 120.459 10.2907 115.319 6.54102 108.8L6.53809 108.794C2.8369 102.259 1.00001 94.7616 1 86.3311V44.4189C1.00001 35.9884 2.8369 28.491 6.53809 21.9561L6.54102 21.9502C10.2915 15.4301 15.4341 10.3159 21.9561 6.62207C28.4906 2.8647 35.9882 1.00001 44.4189 1ZM143.978 1C151.794 1.00006 158.839 2.78334 165.086 6.36816H165.087C171.324 9.89068 176.239 14.7483 179.821 20.9277H179.822C183.471 27.1246 185.283 34.1758 185.283 42.0527C185.283 47.7114 184.541 52.5706 183.022 56.6016C181.512 60.6092 179.25 64.3182 176.246 67.7266C173.283 71.0885 169.59 74.7209 165.176 78.626L165.177 78.627L131.914 108.315H185.283V127.131H100.976L100.98 126.125L101.065 110.408L101.067 109.965L101.397 109.669L154.379 62.1797L154.386 62.1748C158.61 58.4511 161.396 54.9578 162.836 51.7041L162.841 51.6914H162.842C164.365 48.3728 165.116 45.0781 165.116 41.7998C165.116 37.6147 164.194 33.8976 162.37 30.625L162.366 30.6191C160.535 27.2804 158.012 24.6506 154.786 22.7148C151.579 20.7906 147.874 19.8155 143.64 19.8154C139.299 19.8154 135.452 20.8443 132.072 22.8828L132.068 22.8848C128.723 24.8813 126.115 27.5448 124.23 30.8838C122.347 34.2205 121.432 37.82 121.486 41.7012L121.5 42.7148H101.403V41.7148C101.403 33.6735 103.214 26.5896 106.869 20.498L106.87 20.4961C110.455 14.559 115.32 9.89412 121.448 6.51074L122.045 6.18652C128.461 2.71988 135.781 1 143.978 1ZM44.4189 19.8154C40.0832 19.8154 36.1478 20.8699 32.5908 22.9717L32.5869 22.9746C29.075 25.0277 26.2673 27.834 24.1553 31.4082L24.1514 31.4131C22.0529 34.9106 20.9981 38.8155 20.998 43.1514V87.4297C20.9981 91.8241 22.0546 95.7868 24.1553 99.3418H24.1543C26.2655 102.859 29.0749 105.667 32.5918 107.778C36.1474 109.823 40.0826 110.85 44.4189 110.85C48.4884 110.85 52.1776 109.946 55.5059 108.147L56.167 107.775C59.7395 105.663 62.5734 102.855 64.6826 99.3418C66.7833 95.7868 67.8398 91.8241 67.8398 87.4297V43.1514C67.8398 38.8155 66.785 34.9106 64.6865 31.4131L64.6826 31.4082C62.5728 27.8378 59.7402 25.0315 56.1729 22.9775L56.165 22.9727L56.1572 22.9688C52.6597 20.8702 48.7548 19.8154 44.4189 19.8154Z" stroke="url(#paint0_linear_368_371)" stroke-width="2"/>
<rect y="77" width="202" height="60" fill="url(#paint1_linear_368_371)"/>
<defs>
<linearGradient id="paint0_linear_368_371" x1="89.3704" y1="33.8795" x2="153.326" y2="105.698" gradientUnits="userSpaceOnUse">
<stop stop-color="white"/>
<stop offset="0.576923" stop-color="white" stop-opacity="0.28"/>
</linearGradient>
<linearGradient id="paint1_linear_368_371" x1="101.577" y1="93" x2="101.577" y2="122.5" gradientUnits="userSpaceOnUse">
<stop stop-color="#0C0620" stop-opacity="0"/>
<stop offset="1" stop-color="#0C0620"/>
</linearGradient>
</defs>
</svg>
