<svg width="188" height="132" viewBox="0 0 188 132" fill="none" xmlns="http://www.w3.org/2000/svg">
<mask id="path-1-outside-1_349_249" maskUnits="userSpaceOnUse" x="0" y="0" width="188" height="132" fill="black">
<rect fill="white" width="188" height="132"/>
<path d="M45.249 129.535C36.968 129.535 29.6447 127.732 23.279 124.127C16.9133 120.465 11.8997 115.452 8.238 109.086C4.63267 102.72 2.83 95.397 2.83 87.116V45.204C2.83 36.923 4.63267 29.5997 8.238 23.234C11.8997 16.8683 16.9133 11.8828 23.279 8.27749C29.6447 4.61583 36.968 2.785 45.249 2.785C53.53 2.785 60.8533 4.61583 67.219 8.27749C73.5847 11.8828 78.5702 16.8683 82.1755 23.234C85.8372 29.5997 87.668 36.923 87.668 45.204V87.116C87.668 95.397 85.8372 102.72 82.1755 109.086C78.5702 115.452 73.5847 120.465 67.219 124.127C60.8533 127.732 53.53 129.535 45.249 129.535ZM45.249 112.635C49.7557 112.635 53.8398 111.565 57.5015 109.424C61.2195 107.227 64.177 104.298 66.374 100.636C68.571 96.918 69.6695 92.7775 69.6695 88.2145V43.9365C69.6695 39.4298 68.571 35.3457 66.374 31.684C64.177 27.966 61.2195 25.0367 57.5015 22.896C53.8398 20.699 49.7557 19.6005 45.249 19.6005C40.7423 19.6005 36.63 20.699 32.912 22.896C29.2503 25.0367 26.321 27.966 24.124 31.684C21.927 35.3457 20.8285 39.4298 20.8285 43.9365V88.2145C20.8285 92.7775 21.927 96.918 24.124 100.636C26.321 104.298 29.2503 107.227 32.912 109.424C36.63 111.565 40.7423 112.635 45.249 112.635ZM102.811 126.915L102.895 111.198L155.877 63.7095C160.158 59.9352 163.059 56.3298 164.58 52.8935C166.158 49.4572 166.946 46.0208 166.946 42.5845C166.946 38.2468 165.989 34.3598 164.073 30.9235C162.158 27.4308 159.51 24.6705 156.13 22.6425C152.75 20.6145 148.863 19.6005 144.469 19.6005C139.962 19.6005 135.935 20.6708 132.386 22.8115C128.893 24.8958 126.161 27.6843 124.189 31.177C122.217 34.6697 121.26 38.444 121.316 42.5H103.233C103.233 34.6133 105.008 27.7125 108.557 21.7975C112.162 15.8262 117.091 11.1787 123.344 7.85499C129.597 4.475 136.751 2.785 144.807 2.785C152.469 2.785 159.341 4.53133 165.425 8.02399C171.509 11.4603 176.298 16.1923 179.79 22.22C183.339 28.2477 185.114 35.1203 185.114 42.838C185.114 48.415 184.381 53.147 182.917 57.034C181.452 60.921 179.255 64.5263 176.326 67.85C173.396 71.1737 169.735 74.779 165.341 78.666L124.443 115.17L122.499 110.1H185.114V126.915H102.811Z"/>
</mask>
<path d="M23.279 124.127L22.2817 125.861L22.2934 125.867L23.279 124.127ZM8.238 109.086L6.4977 110.072L6.50435 110.083L8.238 109.086ZM8.238 23.234L6.50432 22.2367L6.49774 22.2484L8.238 23.234ZM23.279 8.27749L24.2647 10.0178L24.2762 10.0111L23.279 8.27749ZM67.219 8.27749L66.2218 10.0112L66.2334 10.0178L67.219 8.27749ZM82.1755 23.234L80.4352 24.2197L80.4419 24.2312L82.1755 23.234ZM82.1755 109.086L80.4418 108.089L80.4352 108.1L82.1755 109.086ZM67.219 124.127L68.2047 125.867L68.2162 125.861L67.219 124.127ZM57.5015 109.424L58.5109 111.151L58.519 111.146L57.5015 109.424ZM66.374 100.636L68.089 101.665L68.0959 101.653L66.374 100.636ZM66.374 31.684L64.6521 32.7015L64.659 32.713L66.374 31.684ZM57.5015 22.896L56.4725 24.611L56.488 24.6202L56.5036 24.6292L57.5015 22.896ZM32.912 22.896L33.9214 24.6226L33.9295 24.6178L32.912 22.896ZM24.124 31.684L25.839 32.713L25.8459 32.7015L24.124 31.684ZM24.124 100.636L22.4021 101.653L22.409 101.665L24.124 100.636ZM32.912 109.424L31.883 111.139L31.8985 111.148L31.9141 111.157L32.912 109.424ZM45.249 129.535V127.535C37.2671 127.535 30.2918 125.8 24.2646 122.387L23.279 124.127L22.2934 125.867C28.9976 129.664 36.6689 131.535 45.249 131.535V129.535ZM23.279 124.127L24.2762 122.393C18.2168 118.908 13.4572 114.148 9.97165 108.089L8.238 109.086L6.50435 110.083C10.3422 116.755 15.6099 122.023 22.2818 125.861L23.279 124.127ZM8.238 109.086L9.97827 108.1C6.56466 102.073 4.83 95.0979 4.83 87.116H2.83H0.83C0.83 95.6961 2.70068 103.367 6.49774 110.072L8.238 109.086ZM2.83 87.116H4.83V45.204H2.83H0.83V87.116H2.83ZM2.83 45.204H4.83C4.83 37.2221 6.56466 30.2468 9.97827 24.2196L8.238 23.234L6.49774 22.2484C2.70068 28.9525 0.83 36.6239 0.83 45.204H2.83ZM8.238 23.234L9.97165 24.2312C13.4556 18.1744 18.2115 13.4461 24.2646 10.0178L23.279 8.27749L22.2934 6.53723C15.6151 10.3196 10.3437 15.5622 6.50435 22.2368L8.238 23.234ZM23.279 8.27749L24.2762 10.0111C30.3013 6.54537 37.2724 4.785 45.249 4.785V2.785V0.784998C36.6636 0.784998 28.988 2.68628 22.2818 6.54385L23.279 8.27749ZM45.249 2.785V4.785C53.2256 4.785 60.1967 6.54537 66.2218 10.0111L67.219 8.27749L68.2162 6.54384C61.51 2.68628 53.8344 0.784998 45.249 0.784998V2.785ZM67.219 8.27749L66.2334 10.0178C72.2838 13.4445 77.0085 18.1692 80.4352 24.2196L82.1755 23.234L83.9158 22.2484C80.1319 15.5674 74.8856 10.3211 68.2046 6.53723L67.219 8.27749ZM82.1755 23.234L80.4419 24.2312C83.9076 30.2563 85.668 37.2274 85.668 45.204H87.668H89.668C89.668 36.6186 87.7667 28.943 83.9091 22.2368L82.1755 23.234ZM87.668 45.204H85.668V87.116H87.668H89.668V45.204H87.668ZM87.668 87.116H85.668C85.668 95.0926 83.9076 102.064 80.4419 108.089L82.1755 109.086L83.9091 110.083C87.7667 103.377 89.668 95.7014 89.668 87.116H87.668ZM82.1755 109.086L80.4352 108.1C77.0069 114.153 72.2786 118.909 66.2218 122.393L67.219 124.127L68.2162 125.861C74.8908 122.021 80.1334 116.75 83.9158 110.072L82.1755 109.086ZM67.219 124.127L66.2334 122.387C60.2062 125.8 53.2309 127.535 45.249 127.535V129.535V131.535C53.8291 131.535 61.5005 129.664 68.2046 125.867L67.219 124.127ZM45.249 112.635V114.635C50.0874 114.635 54.5237 113.482 58.5109 111.151L57.5015 109.424L56.4921 107.697C53.156 109.648 49.4239 110.635 45.249 110.635V112.635ZM57.5015 109.424L58.519 111.146C62.5201 108.782 65.7187 105.615 68.089 101.665L66.374 100.636L64.659 99.607C62.6353 102.98 59.9189 105.672 56.484 107.702L57.5015 109.424ZM66.374 100.636L68.0959 101.653C70.4854 97.6096 71.6695 93.1143 71.6695 88.2145H69.6695H67.6695C67.6695 92.4406 66.6566 96.2263 64.6521 99.6185L66.374 100.636ZM69.6695 88.2145H71.6695V43.9365H69.6695H67.6695V88.2145H69.6695ZM69.6695 43.9365H71.6695C71.6695 39.0883 70.483 34.645 68.089 30.655L66.374 31.684L64.659 32.713C66.659 36.0464 67.6695 39.7714 67.6695 43.9365H69.6695ZM66.374 31.684L68.0959 30.6665C65.7245 26.6536 62.5185 23.4768 58.4994 21.1627L57.5015 22.896L56.5036 24.6292C59.9205 26.5966 62.6295 29.2784 64.6521 32.7015L66.374 31.684ZM57.5015 22.896L58.5305 21.181C54.5405 18.787 50.0972 17.6005 45.249 17.6005V19.6005V21.6005C49.4141 21.6005 53.1391 22.611 56.4725 24.611L57.5015 22.896ZM45.249 19.6005V17.6005C40.4007 17.6005 35.9344 18.7869 31.8945 21.1741L32.912 22.896L33.9295 24.6178C37.3256 22.611 41.084 21.6005 45.249 21.6005V19.6005ZM32.912 22.896L31.9026 21.1694C27.9414 23.4852 24.7691 26.6609 22.4021 30.6665L24.124 31.684L25.8459 32.7015C27.8729 29.2711 30.5593 26.5881 33.9214 24.6226L32.912 22.896ZM24.124 31.684L22.409 30.655C20.015 34.645 18.8285 39.0883 18.8285 43.9365H20.8285H22.8285C22.8285 39.7714 23.839 36.0464 25.839 32.713L24.124 31.684ZM20.8285 43.9365H18.8285V88.2145H20.8285H22.8285V43.9365H20.8285ZM20.8285 88.2145H18.8285C18.8285 93.1143 20.0126 97.6096 22.4021 101.653L24.124 100.636L25.8459 99.6185C23.8414 96.2264 22.8285 92.4406 22.8285 88.2145H20.8285ZM24.124 100.636L22.409 101.665C24.7749 105.608 27.9398 108.773 31.883 111.139L32.912 109.424L33.941 107.709C30.5608 105.681 27.8671 102.987 25.839 99.607L24.124 100.636ZM32.912 109.424L31.9141 111.157C35.9512 113.482 40.4105 114.635 45.249 114.635V112.635V110.635C41.0742 110.635 37.3088 109.648 33.9099 107.691L32.912 109.424ZM102.811 126.915L100.811 126.905L100.8 128.915H102.811V126.915ZM102.895 111.198L101.56 109.709L100.9 110.301L100.895 111.188L102.895 111.198ZM155.877 63.7095L154.554 62.2092L154.548 62.2147L154.542 62.2202L155.877 63.7095ZM164.58 52.8935L162.763 52.0592L162.757 52.0715L162.751 52.084L164.58 52.8935ZM164.073 30.9235L162.32 31.8852L162.326 31.8972L164.073 30.9235ZM132.386 22.8115L133.411 24.5289L133.419 24.5241L132.386 22.8115ZM121.316 42.5V44.5H123.344L123.316 42.4722L121.316 42.5ZM103.233 42.5H101.233V44.5H103.233V42.5ZM108.557 21.7975L106.845 20.7638L106.842 20.7685L108.557 21.7975ZM123.344 7.85499L124.283 9.62106L124.295 9.61441L123.344 7.85499ZM165.425 8.02399L164.429 9.75854L164.442 9.76542L165.425 8.02399ZM179.79 22.22L178.06 23.2227L178.067 23.2347L179.79 22.22ZM182.917 57.034L184.788 57.7392L184.788 57.7392L182.917 57.034ZM176.326 67.85L174.825 66.5276L174.825 66.5276L176.326 67.85ZM165.341 78.666L164.016 77.168L164.009 77.1739L165.341 78.666ZM124.443 115.17L122.575 115.886L123.612 118.592L125.774 116.662L124.443 115.17ZM122.499 110.1V108.1H119.591L120.632 110.816L122.499 110.1ZM185.114 110.1H187.114V108.1H185.114V110.1ZM185.114 126.915V128.915H187.114V126.915H185.114ZM102.811 126.915L104.811 126.926L104.895 111.209L102.895 111.198L100.895 111.188L100.811 126.905L102.811 126.915ZM102.895 111.198L104.23 112.688L157.212 65.1988L155.877 63.7095L154.542 62.2202L101.56 109.709L102.895 111.198ZM155.877 63.7095L157.199 65.2098C161.595 61.3342 164.726 57.5044 166.409 53.703L164.58 52.8935L162.751 52.084C161.392 55.1552 158.721 58.5361 154.554 62.2092L155.877 63.7095ZM164.58 52.8935L166.398 53.7278C168.083 50.0563 168.946 46.3366 168.946 42.5845H166.946H164.946C164.946 45.705 164.232 48.8581 162.763 52.0592L164.58 52.8935ZM166.946 42.5845H168.946C168.946 37.9418 167.918 33.7136 165.82 29.9498L164.073 30.9235L162.326 31.8972C164.059 35.0061 164.946 38.5519 164.946 42.5845H166.946ZM164.073 30.9235L165.827 29.9618C163.743 26.1617 160.847 23.14 157.159 20.9275L156.13 22.6425L155.101 24.3575C158.174 26.201 160.573 28.6999 162.32 31.8852L164.073 30.9235ZM156.13 22.6425L157.159 20.9275C153.434 18.6922 149.183 17.6005 144.469 17.6005V19.6005V21.6005C148.543 21.6005 152.067 22.5368 155.101 24.3575L156.13 22.6425ZM144.469 19.6005V17.6005C139.631 17.6005 135.24 18.7539 131.353 21.0989L132.386 22.8115L133.419 24.5241C136.629 22.5878 140.294 21.6005 144.469 21.6005V19.6005ZM132.386 22.8115L131.361 21.0941C127.574 23.354 124.593 26.3938 122.448 30.1938L124.189 31.177L125.931 32.1602C127.729 28.9749 130.212 26.4376 133.411 24.5289L132.386 22.8115ZM124.189 31.177L122.448 30.1938C120.3 33.9984 119.255 38.1221 119.316 42.5278L121.316 42.5L123.316 42.4722C123.264 38.7659 124.135 35.341 125.931 32.1602L124.189 31.177ZM121.316 42.5V40.5H103.233V42.5V44.5H121.316V42.5ZM103.233 42.5H105.233C105.233 34.9229 106.935 28.3882 110.272 22.8265L108.557 21.7975L106.842 20.7685C103.081 27.0368 101.233 34.3038 101.233 42.5H103.233ZM108.557 21.7975L110.269 22.8312C113.684 17.1743 118.344 12.7777 124.283 9.62102L123.344 7.85499L122.405 6.08897C115.838 9.57962 110.64 14.478 106.845 20.7638L108.557 21.7975ZM123.344 7.85499L124.295 9.61441C130.219 6.41234 137.039 4.785 144.807 4.785V2.785V0.784998C136.464 0.784998 128.975 2.53765 122.393 6.09558L123.344 7.85499ZM144.807 2.785V4.785C152.152 4.785 158.676 6.45556 164.429 9.7585L165.425 8.02399L166.421 6.28948C160.006 2.60709 152.785 0.784998 144.807 0.784998V2.785ZM165.425 8.02399L164.442 9.76542C170.216 13.027 174.746 17.5044 178.06 23.2227L179.79 22.22L181.521 21.2173C177.849 14.8802 172.802 9.89363 166.409 6.28256L165.425 8.02399ZM179.79 22.22L178.067 23.2347C181.416 28.9238 183.114 35.4393 183.114 42.838H185.114H187.114C187.114 34.8014 185.262 27.5715 181.514 21.2053L179.79 22.22ZM185.114 42.838H183.114C183.114 48.2516 182.401 52.7298 181.045 56.3288L182.917 57.034L184.788 57.7392C186.361 53.5642 187.114 48.5784 187.114 42.838H185.114ZM182.917 57.034L181.045 56.3288C179.671 59.9746 177.605 63.3733 174.825 66.5276L176.326 67.85L177.826 69.1724C180.905 65.6793 183.233 61.8674 184.788 57.7392L182.917 57.034ZM176.326 67.85L174.825 66.5276C171.965 69.773 168.366 73.3194 164.016 77.168L165.341 78.666L166.666 80.164C171.103 76.2386 174.828 72.5743 177.826 69.1724L176.326 67.85ZM165.341 78.666L164.009 77.1739L123.111 113.678L124.443 115.17L125.774 116.662L166.672 80.1581L165.341 78.666ZM124.443 115.17L126.31 114.454L124.367 109.384L122.499 110.1L120.632 110.816L122.575 115.886L124.443 115.17ZM122.499 110.1V112.1H185.114V110.1V108.1H122.499V110.1ZM185.114 110.1H183.114V126.915H185.114H187.114V110.1H185.114ZM185.114 126.915V124.915H102.811V126.915V128.915H185.114V126.915Z" fill="url(#paint0_linear_349_249)" mask="url(#path-1-outside-1_349_249)"/>
<defs>
<linearGradient id="paint0_linear_349_249" x1="107.472" y1="-11.5" x2="190.477" y2="83.9509" gradientUnits="userSpaceOnUse">
<stop stop-color="white"/>
<stop offset="0.576923" stop-color="white" stop-opacity="0.28"/>
</linearGradient>
</defs>
</svg>
