<svg width="183" height="132" viewBox="0 0 183 132" fill="none" xmlns="http://www.w3.org/2000/svg">
<mask id="path-1-outside-1_349_254" maskUnits="userSpaceOnUse" x="0" y="0" width="183" height="132" fill="black">
<rect fill="white" width="183" height="132"/>
<path d="M45.249 129.535C36.968 129.535 29.6447 127.732 23.279 124.127C16.9133 120.465 11.8997 115.452 8.238 109.086C4.63267 102.72 2.83 95.397 2.83 87.116V45.204C2.83 36.923 4.63267 29.5997 8.238 23.234C11.8997 16.8683 16.9133 11.8828 23.279 8.27749C29.6447 4.61583 36.968 2.785 45.249 2.785C53.53 2.785 60.8533 4.61583 67.219 8.27749C73.5847 11.8828 78.5702 16.8683 82.1755 23.234C85.8372 29.5997 87.668 36.923 87.668 45.204V87.116C87.668 95.397 85.8372 102.72 82.1755 109.086C78.5702 115.452 73.5847 120.465 67.219 124.127C60.8533 127.732 53.53 129.535 45.249 129.535ZM45.249 112.635C49.7557 112.635 53.8398 111.565 57.5015 109.424C61.2195 107.227 64.177 104.298 66.374 100.636C68.571 96.918 69.6695 92.7775 69.6695 88.2145V43.9365C69.6695 39.4298 68.571 35.3457 66.374 31.684C64.177 27.966 61.2195 25.0367 57.5015 22.896C53.8398 20.699 49.7557 19.6005 45.249 19.6005C40.7423 19.6005 36.63 20.699 32.912 22.896C29.2503 25.0367 26.321 27.966 24.124 31.684C21.927 35.3457 20.8285 39.4298 20.8285 43.9365V88.2145C20.8285 92.7775 21.927 96.918 24.124 100.636C26.321 104.298 29.2503 107.227 32.912 109.424C36.63 111.565 40.7423 112.635 45.249 112.635ZM140.244 129.282C134.216 129.282 128.555 128.155 123.26 125.901C117.964 123.592 113.373 120.324 109.486 116.099C105.655 111.874 102.867 106.889 101.121 101.143L118.19 96.411C119.823 101.65 122.668 105.678 126.724 108.494C130.78 111.255 135.287 112.607 140.244 112.55C144.695 112.494 148.61 111.452 151.99 109.424C155.37 107.396 158.017 104.664 159.933 101.227C161.848 97.7348 162.806 93.7352 162.806 89.2285C162.806 82.4685 160.693 76.8915 156.468 72.4975C152.299 68.1035 146.835 65.9065 140.075 65.9065C138.16 65.9065 136.188 66.1882 134.16 66.7515C132.188 67.3148 130.329 68.0472 128.583 68.9485L120.302 55.006L163.228 17.0655L165.087 22.1355H105.937V5.32H179.114V22.1355L143.455 56.4425L143.286 50.6965C150.948 50.6965 157.595 52.4147 163.228 55.851C168.862 59.231 173.199 63.8503 176.241 69.709C179.34 75.5113 180.889 82.0178 180.889 89.2285C180.889 97.0025 179.058 103.903 175.396 109.931C171.791 115.959 166.918 120.691 160.778 124.127C154.694 127.563 147.849 129.282 140.244 129.282Z"/>
</mask>
<path d="M23.279 124.127L22.2817 125.861L22.2934 125.867L23.279 124.127ZM8.238 109.086L6.4977 110.072L6.50435 110.083L8.238 109.086ZM8.238 23.234L6.50432 22.2367L6.49774 22.2484L8.238 23.234ZM23.279 8.27749L24.2647 10.0178L24.2762 10.0111L23.279 8.27749ZM67.219 8.27749L66.2218 10.0112L66.2334 10.0178L67.219 8.27749ZM82.1755 23.234L80.4352 24.2197L80.4419 24.2312L82.1755 23.234ZM82.1755 109.086L80.4418 108.089L80.4352 108.1L82.1755 109.086ZM67.219 124.127L68.2047 125.867L68.2162 125.861L67.219 124.127ZM57.5015 109.424L58.5109 111.151L58.519 111.146L57.5015 109.424ZM66.374 100.636L68.089 101.665L68.0959 101.653L66.374 100.636ZM66.374 31.684L64.6521 32.7015L64.659 32.713L66.374 31.684ZM57.5015 22.896L56.4725 24.611L56.488 24.6202L56.5036 24.6292L57.5015 22.896ZM32.912 22.896L33.9214 24.6226L33.9295 24.6178L32.912 22.896ZM24.124 31.684L25.839 32.713L25.8459 32.7015L24.124 31.684ZM24.124 100.636L22.4021 101.653L22.409 101.665L24.124 100.636ZM32.912 109.424L31.883 111.139L31.8985 111.148L31.9141 111.157L32.912 109.424ZM45.249 129.535V127.535C37.2671 127.535 30.2918 125.8 24.2646 122.387L23.279 124.127L22.2934 125.867C28.9976 129.664 36.6689 131.535 45.249 131.535V129.535ZM23.279 124.127L24.2762 122.393C18.2168 118.908 13.4572 114.148 9.97165 108.089L8.238 109.086L6.50435 110.083C10.3422 116.755 15.6099 122.023 22.2818 125.861L23.279 124.127ZM8.238 109.086L9.97827 108.1C6.56466 102.073 4.83 95.0979 4.83 87.116H2.83H0.83C0.83 95.6961 2.70068 103.367 6.49774 110.072L8.238 109.086ZM2.83 87.116H4.83V45.204H2.83H0.83V87.116H2.83ZM2.83 45.204H4.83C4.83 37.2221 6.56466 30.2468 9.97827 24.2196L8.238 23.234L6.49774 22.2484C2.70068 28.9525 0.83 36.6239 0.83 45.204H2.83ZM8.238 23.234L9.97165 24.2312C13.4556 18.1744 18.2115 13.4461 24.2646 10.0178L23.279 8.27749L22.2934 6.53723C15.6151 10.3196 10.3437 15.5622 6.50435 22.2368L8.238 23.234ZM23.279 8.27749L24.2762 10.0111C30.3013 6.54537 37.2724 4.785 45.249 4.785V2.785V0.784998C36.6636 0.784998 28.988 2.68628 22.2818 6.54385L23.279 8.27749ZM45.249 2.785V4.785C53.2256 4.785 60.1967 6.54537 66.2218 10.0111L67.219 8.27749L68.2162 6.54384C61.51 2.68628 53.8344 0.784998 45.249 0.784998V2.785ZM67.219 8.27749L66.2334 10.0178C72.2838 13.4445 77.0085 18.1692 80.4352 24.2196L82.1755 23.234L83.9158 22.2484C80.1319 15.5674 74.8856 10.3211 68.2046 6.53723L67.219 8.27749ZM82.1755 23.234L80.4419 24.2312C83.9076 30.2563 85.668 37.2274 85.668 45.204H87.668H89.668C89.668 36.6186 87.7667 28.943 83.9091 22.2368L82.1755 23.234ZM87.668 45.204H85.668V87.116H87.668H89.668V45.204H87.668ZM87.668 87.116H85.668C85.668 95.0926 83.9076 102.064 80.4419 108.089L82.1755 109.086L83.9091 110.083C87.7667 103.377 89.668 95.7014 89.668 87.116H87.668ZM82.1755 109.086L80.4352 108.1C77.0069 114.153 72.2786 118.909 66.2218 122.393L67.219 124.127L68.2162 125.861C74.8908 122.021 80.1334 116.75 83.9158 110.072L82.1755 109.086ZM67.219 124.127L66.2334 122.387C60.2062 125.8 53.2309 127.535 45.249 127.535V129.535V131.535C53.8291 131.535 61.5005 129.664 68.2046 125.867L67.219 124.127ZM45.249 112.635V114.635C50.0874 114.635 54.5237 113.482 58.5109 111.151L57.5015 109.424L56.4921 107.697C53.156 109.648 49.4239 110.635 45.249 110.635V112.635ZM57.5015 109.424L58.519 111.146C62.5201 108.782 65.7187 105.615 68.089 101.665L66.374 100.636L64.659 99.607C62.6353 102.98 59.9189 105.672 56.484 107.702L57.5015 109.424ZM66.374 100.636L68.0959 101.653C70.4854 97.6096 71.6695 93.1143 71.6695 88.2145H69.6695H67.6695C67.6695 92.4406 66.6566 96.2263 64.6521 99.6185L66.374 100.636ZM69.6695 88.2145H71.6695V43.9365H69.6695H67.6695V88.2145H69.6695ZM69.6695 43.9365H71.6695C71.6695 39.0883 70.483 34.645 68.089 30.655L66.374 31.684L64.659 32.713C66.659 36.0464 67.6695 39.7714 67.6695 43.9365H69.6695ZM66.374 31.684L68.0959 30.6665C65.7245 26.6536 62.5185 23.4768 58.4994 21.1627L57.5015 22.896L56.5036 24.6292C59.9205 26.5966 62.6295 29.2784 64.6521 32.7015L66.374 31.684ZM57.5015 22.896L58.5305 21.181C54.5405 18.787 50.0972 17.6005 45.249 17.6005V19.6005V21.6005C49.4141 21.6005 53.1391 22.611 56.4725 24.611L57.5015 22.896ZM45.249 19.6005V17.6005C40.4007 17.6005 35.9344 18.7869 31.8945 21.1741L32.912 22.896L33.9295 24.6178C37.3256 22.611 41.084 21.6005 45.249 21.6005V19.6005ZM32.912 22.896L31.9026 21.1694C27.9414 23.4852 24.7691 26.6609 22.4021 30.6665L24.124 31.684L25.8459 32.7015C27.8729 29.2711 30.5593 26.5881 33.9214 24.6226L32.912 22.896ZM24.124 31.684L22.409 30.655C20.015 34.645 18.8285 39.0883 18.8285 43.9365H20.8285H22.8285C22.8285 39.7714 23.839 36.0464 25.839 32.713L24.124 31.684ZM20.8285 43.9365H18.8285V88.2145H20.8285H22.8285V43.9365H20.8285ZM20.8285 88.2145H18.8285C18.8285 93.1143 20.0126 97.6096 22.4021 101.653L24.124 100.636L25.8459 99.6185C23.8414 96.2264 22.8285 92.4406 22.8285 88.2145H20.8285ZM24.124 100.636L22.409 101.665C24.7749 105.608 27.9398 108.773 31.883 111.139L32.912 109.424L33.941 107.709C30.5608 105.681 27.8671 102.987 25.839 99.607L24.124 100.636ZM32.912 109.424L31.9141 111.157C35.9512 113.482 40.4105 114.635 45.249 114.635V112.635V110.635C41.0742 110.635 37.3088 109.648 33.9099 107.691L32.912 109.424ZM123.26 125.901L122.46 127.735L122.468 127.738L122.477 127.742L123.26 125.901ZM109.486 116.099L108.004 117.443L108.009 117.448L108.014 117.454L109.486 116.099ZM101.121 101.143L100.586 99.2157L98.611 99.7633L99.2071 101.725L101.121 101.143ZM118.19 96.411L120.099 95.8156L119.522 93.9661L117.655 94.4837L118.19 96.411ZM126.724 108.494L125.583 110.137L125.591 110.143L125.599 110.148L126.724 108.494ZM140.244 112.55L140.267 114.55L140.269 114.55L140.244 112.55ZM151.99 109.424L153.019 111.139L153.019 111.139L151.99 109.424ZM159.933 101.227L161.68 102.201L161.686 102.189L159.933 101.227ZM156.468 72.4975L155.017 73.874L155.026 73.8837L156.468 72.4975ZM134.16 66.7515L133.625 64.8245L133.618 64.8264L133.611 64.8284L134.16 66.7515ZM128.583 68.9485L126.864 69.9698L127.826 71.59L129.5 70.7257L128.583 68.9485ZM120.302 55.006L118.978 53.5074L117.737 54.6039L118.583 56.0273L120.302 55.006ZM163.228 17.0655L165.106 16.377L164.098 13.6276L161.904 15.5669L163.228 17.0655ZM165.087 22.1355V24.1355H167.951L166.965 21.447L165.087 22.1355ZM105.937 22.1355H103.937V24.1355H105.937V22.1355ZM105.937 5.32V3.32H103.937V5.32H105.937ZM179.114 5.32H181.114V3.32H179.114V5.32ZM179.114 22.1355L180.501 23.5768L181.114 22.9867V22.1355H179.114ZM143.455 56.4425L141.456 56.5013L141.589 61.0135L144.842 57.8838L143.455 56.4425ZM143.286 50.6965V48.6965H141.226L141.287 50.7553L143.286 50.6965ZM163.228 55.851L162.187 57.5584L162.193 57.5622L162.199 57.566L163.228 55.851ZM176.241 69.709L174.466 70.6306L174.471 70.6409L174.477 70.6511L176.241 69.709ZM175.396 109.931L173.687 108.893L173.68 108.904L175.396 109.931ZM160.778 124.127L159.801 122.382L159.794 122.386L160.778 124.127ZM140.244 129.282V127.282C134.473 127.282 129.079 126.204 124.043 124.061L123.26 125.901L122.477 127.742C128.031 130.105 133.96 131.282 140.244 131.282V129.282ZM123.26 125.901L124.059 124.068C119.017 121.869 114.655 118.764 110.958 114.745L109.486 116.099L108.014 117.454C112.091 121.885 116.911 125.315 122.46 127.735L123.26 125.901ZM109.486 116.099L110.968 114.756C107.346 110.762 104.699 106.04 103.034 100.561L101.121 101.143L99.2071 101.725C101.035 107.738 103.965 112.987 108.004 117.443L109.486 116.099ZM101.121 101.143L101.655 103.07L118.724 98.3383L118.19 96.411L117.655 94.4837L100.586 99.2157L101.121 101.143ZM118.19 96.411L116.28 97.0064C118.031 102.62 121.121 107.038 125.583 110.137L126.724 108.494L127.865 106.852C124.215 104.317 121.616 100.68 120.099 95.8156L118.19 96.411ZM126.724 108.494L125.599 110.148C129.997 113.141 134.905 114.611 140.267 114.55L140.244 112.55L140.221 110.551C135.669 110.602 131.563 109.369 127.849 106.841L126.724 108.494ZM140.244 112.55L140.269 114.55C145.027 114.49 149.298 113.372 153.019 111.139L151.99 109.424L150.961 107.709C147.922 109.532 144.362 110.498 140.219 110.551L140.244 112.55ZM151.99 109.424L153.019 111.139C156.698 108.931 159.594 105.944 161.68 102.201L159.933 101.227L158.186 100.254C156.441 103.384 154.041 105.861 150.961 107.709L151.99 109.424ZM159.933 101.227L161.686 102.189C163.784 98.3648 164.806 94.0265 164.806 89.2285H162.806H160.806C160.806 93.4438 159.912 97.1049 158.179 100.266L159.933 101.227ZM162.806 89.2285H164.806C164.806 82.013 162.533 75.9199 157.91 71.1113L156.468 72.4975L155.026 73.8837C158.853 77.8631 160.806 82.924 160.806 89.2285H162.806ZM156.468 72.4975L157.919 71.121C153.327 66.2807 147.314 63.9065 140.075 63.9065V65.9065V67.9065C146.357 67.9065 151.272 69.9263 155.017 73.874L156.468 72.4975ZM140.075 65.9065V63.9065C137.962 63.9065 135.81 64.2174 133.625 64.8245L134.16 66.7515L134.695 68.6785C136.566 68.1589 138.358 67.9065 140.075 67.9065V65.9065ZM134.16 66.7515L133.611 64.8284C131.517 65.4265 129.535 66.2067 127.666 67.1713L128.583 68.9485L129.5 70.7257C131.124 69.8876 132.86 69.2031 134.71 68.6745L134.16 66.7515ZM128.583 68.9485L130.303 67.9272L122.022 53.9847L120.302 55.006L118.583 56.0273L126.864 69.9698L128.583 68.9485ZM120.302 55.006L121.627 56.5046L164.553 18.564L163.228 17.0655L161.904 15.5669L118.978 53.5074L120.302 55.006ZM163.228 17.0655L161.35 17.754L163.209 22.824L165.087 22.1355L166.965 21.447L165.106 16.377L163.228 17.0655ZM165.087 22.1355V20.1355H105.937V22.1355V24.1355H165.087V22.1355ZM105.937 22.1355H107.937V5.32H105.937H103.937V22.1355H105.937ZM105.937 5.32V7.32H179.114V5.32V3.32H105.937V5.32ZM179.114 5.32H177.114V22.1355H179.114H181.114V5.32H179.114ZM179.114 22.1355L177.728 20.6942L142.069 55.0012L143.455 56.4425L144.842 57.8838L180.501 23.5768L179.114 22.1355ZM143.455 56.4425L145.454 56.3837L145.285 50.6377L143.286 50.6965L141.287 50.7553L141.456 56.5013L143.455 56.4425ZM143.286 50.6965V52.6965C150.64 52.6965 156.915 54.3425 162.187 57.5584L163.228 55.851L164.27 54.1436C158.275 50.4868 151.255 48.6965 143.286 48.6965V50.6965ZM163.228 55.851L162.199 57.566C167.514 60.7546 171.594 65.0986 174.466 70.6306L176.241 69.709L178.016 68.7874C174.805 62.602 170.209 57.7073 164.257 54.136L163.228 55.851ZM176.241 69.709L174.477 70.6511C177.406 76.1363 178.889 82.3142 178.889 89.2285H180.889H182.889C182.889 81.7215 181.273 74.8864 178.005 68.7669L176.241 69.709ZM180.889 89.2285H178.889C178.889 96.6749 177.139 103.209 173.687 108.893L175.396 109.931L177.105 110.969C180.976 104.597 182.889 97.3301 182.889 89.2285H180.889ZM175.396 109.931L173.68 108.904C170.254 114.631 165.637 119.116 159.801 122.382L160.778 124.127L161.754 125.872C168.199 122.266 173.327 117.286 177.113 110.958L175.396 109.931ZM160.778 124.127L159.794 122.386C154.036 125.638 147.536 127.282 140.244 127.282V129.282V131.282C148.163 131.282 155.351 129.489 161.761 125.868L160.778 124.127Z" fill="url(#paint0_linear_349_254)" mask="url(#path-1-outside-1_349_254)"/>
<defs>
<linearGradient id="paint0_linear_349_254" x1="114.662" y1="-11.5" x2="196.835" y2="88.8281" gradientUnits="userSpaceOnUse">
<stop stop-color="white"/>
<stop offset="0.576923" stop-color="white" stop-opacity="0.28"/>
</linearGradient>
</defs>
</svg>
