<svg width="202" height="140" viewBox="0 0 202 140" fill="none" xmlns="http://www.w3.org/2000/svg">
<path d="M45.249 1.78491C53.6794 1.78491 61.1765 3.64993 67.7109 7.40698C74.2342 11.1016 79.3513 16.2177 83.0459 22.741H83.0449C86.8025 29.2756 88.668 36.773 88.668 45.2039V87.116C88.668 95.5466 86.8022 103.043 83.0449 109.578C79.3511 116.1 74.2379 121.243 67.7178 124.994L67.7119 124.997C61.177 128.698 53.6796 130.535 45.249 130.535C36.8185 130.535 29.321 128.698 22.7861 124.997L22.7803 124.994C16.2616 121.244 11.1208 116.103 7.37109 109.585L7.36816 109.579C3.66697 103.044 1.83009 95.5465 1.83008 87.116V45.2039C1.83009 36.7733 3.66697 29.2759 7.36816 22.741L7.37109 22.7351C11.1216 16.215 16.2642 11.1008 22.7861 7.40698C29.3207 3.64962 36.8183 1.78492 45.249 1.78491ZM180.114 4.32007V22.5613L179.808 22.8562L151.22 50.3591C155.814 51.1648 159.994 52.7066 163.749 54.9968H163.748C169.538 58.4722 174.003 63.2277 177.129 69.2478H177.128C180.307 75.2062 181.889 81.8735 181.889 89.2283C181.889 97.1633 180.018 104.245 176.254 110.443L176.255 110.444C172.56 116.621 167.56 121.475 161.269 124.997L161.27 124.998C155.022 128.526 148.006 130.281 140.244 130.281C134.089 130.281 128.293 129.13 122.868 126.822L122.86 126.818C117.438 124.453 112.732 121.104 108.75 116.776L108.745 116.771C104.81 112.431 101.951 107.313 100.164 101.433L99.8662 100.453L100.854 100.179L117.923 95.447L118.856 95.1882L119.145 96.113C120.72 101.165 123.442 104.997 127.295 107.673H127.294C131.177 110.313 135.48 111.604 140.231 111.551L141.03 111.529C144.993 111.367 148.467 110.372 151.476 108.566C154.704 106.629 157.226 104.027 159.056 100.747L159.388 100.117C160.993 96.939 161.806 93.3167 161.806 89.2283C161.806 82.6961 159.773 77.3769 155.747 73.1902L155.743 73.1853C151.786 69.0145 146.596 66.906 140.075 66.906C138.259 66.906 136.377 67.1731 134.428 67.7146C132.52 68.2603 130.725 68.9681 129.042 69.8367L128.205 70.2693L127.724 69.4587L119.442 55.5164L119.02 54.8044L119.64 54.2566L154.851 23.1355H104.938V4.32007H180.114ZM45.249 20.6003C40.9133 20.6004 36.9779 21.6548 33.4209 23.7566L33.417 23.7595C29.9051 25.8126 27.0974 28.6189 24.9854 32.1931L24.9814 32.198C22.883 35.6955 21.8281 39.6004 21.8281 43.9363V88.2146C21.8282 92.609 22.8847 96.5717 24.9854 100.127H24.9844C27.0956 103.644 29.9049 106.452 33.4219 108.563C36.9775 110.608 40.9127 111.635 45.249 111.635C49.3185 111.635 53.0077 110.731 56.3359 108.932L56.9971 108.56C60.5696 106.448 63.4035 103.64 65.5127 100.127C67.6133 96.5717 68.6699 92.609 68.6699 88.2146V43.9363C68.6699 39.6004 67.6151 35.6955 65.5166 32.198L65.5127 32.1931C63.4029 28.6227 60.5703 25.8164 57.0029 23.7625L56.9951 23.7576L56.9873 23.7537C53.4898 21.6552 49.5849 20.6003 45.249 20.6003Z" stroke="url(#paint0_linear_366_359)" stroke-width="2"/>
<rect y="80" width="202" height="60" fill="url(#paint1_linear_366_359)"/>
<defs>
<linearGradient id="paint0_linear_366_359" x1="88.1754" y1="34.6645" x2="152.287" y2="104.989" gradientUnits="userSpaceOnUse">
<stop stop-color="white"/>
<stop offset="0.576923" stop-color="white" stop-opacity="0.28"/>
</linearGradient>
<linearGradient id="paint1_linear_366_359" x1="101.577" y1="96" x2="101.577" y2="125.5" gradientUnits="userSpaceOnUse">
<stop stop-color="#0C0620" stop-opacity="0"/>
<stop offset="1" stop-color="#0C0620"/>
</linearGradient>
</defs>
</svg>
