<svg width="37" height="37" viewBox="0 0 37 37" fill="none" xmlns="http://www.w3.org/2000/svg">
<path d="M18.2332 3.86348e-05C18.3052 2.58853e-05 18.3773 1.31357e-05 18.4515 0C23.5711 0.0127583 28.1638 2.07796 31.8007 5.63765C33.291 7.17702 34.452 8.95975 35.3421 10.906C35.3979 11.0234 35.4538 11.1407 35.5113 11.2617C37.4082 15.4273 37.4431 20.4192 35.8962 24.6949C34.9295 27.2949 33.5498 29.4474 31.6628 31.4783C31.5907 31.5564 31.5186 31.6345 31.4443 31.7149C28.3131 34.9853 23.6393 36.8836 19.1592 36.9952C16.2822 37.0497 13.5713 36.6485 10.9533 35.3818C10.8775 35.3457 10.8017 35.3097 10.7236 35.2725C8.74655 34.3245 7.06868 33.0956 5.48688 31.5838C5.41262 31.5149 5.33836 31.4459 5.26185 31.3749C2.76578 28.987 1.22184 25.6247 0.440928 22.2999C0.407186 22.1612 0.407186 22.1612 0.372762 22.0197C-0.436816 18.393 0.101742 14.2377 1.70242 10.906C1.73834 10.8299 1.77427 10.7538 1.81129 10.6754C2.70704 8.79402 3.84835 7.14561 5.27663 5.63105C5.35211 5.55095 5.42759 5.47085 5.50536 5.38832C7.19791 3.64146 9.40217 2.13232 11.6978 1.31012C11.9666 1.21369 12.2233 1.10472 12.4842 0.989093C13.0042 0.779673 13.5387 0.639791 14.0808 0.501159C14.1646 0.4794 14.2484 0.457641 14.3348 0.435222C15.6254 0.116305 16.9059 -0.00160353 18.2332 3.86348e-05ZM15.0269 3.75473C14.9315 3.8517 14.8361 3.94866 14.7378 4.04857C14.6207 4.16627 14.6207 4.16627 14.5013 4.28635C12.1416 6.79779 11.1556 10.5866 10.695 13.9016C10.638 14.282 10.638 14.282 10.5328 14.5985C10.3936 15.542 10.417 16.4961 10.4277 17.447C12.2782 17.522 13.8982 17.2541 15.3739 16.0178C16.668 14.7735 17.5532 13.0876 17.6014 11.2627C17.602 11.0947 17.6015 10.9266 17.6 10.7586C17.6 10.6659 17.6001 10.5731 17.6001 10.4775C17.6 10.175 17.5983 9.87249 17.5967 9.56996C17.5963 9.35859 17.596 9.14722 17.5958 8.93585C17.595 8.38259 17.5929 7.82933 17.5906 7.27608C17.5884 6.71029 17.5875 6.1445 17.5864 5.57871C17.5842 4.47083 17.5806 3.36296 17.5761 2.25508C16.5747 2.25508 15.705 3.0872 15.0269 3.75473ZM19.4684 2.25508C19.4586 3.46391 19.4511 4.67272 19.4466 5.88157C19.4444 6.44306 19.4415 7.00452 19.4367 7.56599C19.432 8.10913 19.4296 8.65224 19.4285 9.1954C19.4277 9.40131 19.4262 9.60721 19.4239 9.81311C19.4014 11.9183 19.7001 13.9342 21.1752 15.5435C22.3359 16.73 23.7559 17.4574 25.4272 17.475C25.8241 17.4726 26.2201 17.4621 26.6168 17.447C26.665 16.0801 26.5365 14.784 26.3014 13.438C26.2845 13.3391 26.2676 13.2402 26.2502 13.1383C25.8394 10.8009 25.1907 8.43041 23.9887 6.36955C23.9326 6.27283 23.9326 6.27283 23.8754 6.17416C23.3697 5.31567 22.8006 4.54536 22.0965 3.83757C22.0144 3.75393 21.9322 3.67029 21.8476 3.58412C21.2246 2.9838 20.3747 2.25508 19.4684 2.25508ZM11.4395 3.57382C11.327 3.63117 11.327 3.63117 11.2121 3.68967C9.28911 4.68308 7.51035 5.96356 6.11762 7.63554C5.99587 7.77364 5.99587 7.77364 5.87165 7.91453C5.17886 8.71478 4.62738 9.55495 4.12027 10.484C4.06455 10.5861 4.06455 10.5861 4.0077 10.6902C2.87501 12.7958 2.20092 15.0474 2.12291 17.447C3.89642 17.5171 5.31654 17.1204 6.68267 15.9304C7.9438 14.7139 8.49848 13.4185 8.85437 11.7296C9.01454 10.9776 9.21145 10.2435 9.4356 9.50814C9.46513 9.41031 9.49467 9.31248 9.5251 9.21169C10.0736 7.43888 10.848 5.68412 11.8994 4.15407C12.02 3.97173 12.1405 3.78931 12.2608 3.60679C12.3505 3.47263 12.4402 3.33852 12.5302 3.20457C12.1078 3.20457 11.8074 3.38546 11.4395 3.57382ZM24.5143 3.20457C24.5662 3.27985 24.5662 3.27985 24.619 3.35664C26.273 5.79923 27.5089 8.44112 28.0963 11.349C28.5254 13.4512 29.2092 15.117 30.9844 16.4344C32.3072 17.299 33.3825 17.4832 34.9216 17.447C34.9479 16.6949 34.8555 16.0188 34.6982 15.2842C34.6745 15.173 34.6509 15.0617 34.6265 14.9471C34.0077 12.1471 32.6745 9.55941 30.7249 7.45503C30.5746 7.28897 30.4306 7.11716 30.292 6.94114C29.9836 6.55942 29.6196 6.26196 29.2449 5.94755C29.1315 5.84963 29.1315 5.84963 29.0158 5.74974C27.97 4.8734 26.7987 4.17608 25.5853 3.56063C25.4787 3.50637 25.4787 3.50637 25.3701 3.45101C25.0649 3.30066 24.8588 3.20457 24.5143 3.20457ZM2.12291 19.4514C2.18509 23.1443 3.82075 26.8823 6.32705 29.56C6.53812 29.7903 6.53812 29.7903 6.75165 30.0615C7.06032 30.4438 7.42447 30.7416 7.79961 31.0563C7.9112 31.1524 7.9112 31.1524 8.02505 31.2504C9.0891 32.14 10.2669 32.9128 11.5184 33.5092C11.584 33.5408 11.6496 33.5724 11.7172 33.605C12.1108 33.7867 12.1108 33.7867 12.5302 33.6938C12.4805 33.6296 12.4307 33.5654 12.3795 33.4993C10.5066 31.0078 9.43502 28.0595 8.83771 25.0165C8.49154 23.2655 7.66071 21.7178 6.19441 20.649C4.95589 19.8579 3.58799 19.4048 2.12291 19.4514ZM20.7972 21.9554C19.8389 23.2064 19.4308 24.5862 19.4445 26.1494C19.4445 26.2432 19.4444 26.337 19.4444 26.4337C19.4446 26.7396 19.4462 27.0455 19.4478 27.3515C19.4482 27.5652 19.4485 27.779 19.4487 27.9927C19.4495 28.5522 19.4516 29.1117 19.4539 29.6712C19.4561 30.2434 19.4571 30.8155 19.4581 31.3877C19.4604 32.508 19.4639 33.6284 19.4684 34.7488C21.1174 34.4444 22.2948 33.1723 23.2331 31.8608C25.1399 28.9448 26.0734 25.5825 26.4854 22.1483C26.4989 22.0371 26.5123 21.926 26.5262 21.8115C26.6136 21.0225 26.6313 20.2449 26.6168 19.4514C24.2313 19.3292 22.3607 20.137 20.7972 21.9554ZM10.4277 19.5569C10.2935 24.0753 11.5513 29.4925 14.6499 32.905C15.4116 33.7153 16.2002 34.3704 17.2608 34.7488C17.3648 34.7488 17.4689 34.7488 17.5761 34.7488C17.5835 33.5052 17.5891 32.2616 17.5925 31.0179C17.5941 30.4403 17.5963 29.8628 17.5999 29.2852C17.6034 28.727 17.6053 28.1688 17.6061 27.6107C17.6066 27.3985 17.6078 27.1864 17.6095 26.9742C17.6258 24.8663 17.3451 23.0545 15.8145 21.4745C15.7367 21.3987 15.6589 21.323 15.5788 21.2449C15.5118 21.1768 15.4449 21.1087 15.3759 21.0385C14.0826 19.8024 12.5143 19.5095 10.801 19.5458C10.6778 19.5495 10.5546 19.5531 10.4277 19.5569ZM29.6683 21.7889C28.7226 22.9403 28.3254 24.2289 28.0557 25.6693C27.5012 28.4743 26.406 31.5103 24.5143 33.6938C24.8846 33.8177 24.926 33.7851 25.2613 33.6196C25.3465 33.5777 25.4318 33.5357 25.5196 33.4925C25.6562 33.4224 25.6562 33.4224 25.7955 33.3509C25.8894 33.3031 25.9833 33.2552 26.0801 33.2059C27.6304 32.3971 28.9176 31.3862 30.1491 30.1485C30.2969 30.0004 30.4464 29.854 30.5996 29.7116C33.2476 27.2156 34.7648 23.1271 34.9216 19.5569C32.7468 19.4483 31.1447 20.1693 29.6683 21.7889Z" fill="#0C0620"/>
</svg>
