<svg width="20" height="22" viewBox="0 0 20 22" fill="none" xmlns="http://www.w3.org/2000/svg">
<path fill-rule="evenodd" clip-rule="evenodd" d="M7.39301 0.205298C7.64069 0.0161179 7.96243 -0.0467631 8.2631 0.0352479L19.2631 3.03524C19.6982 3.1539 20 3.54906 20 4.00001V18C20 18.451 19.6982 18.8461 19.2631 18.9648L8.2631 21.9648C7.96243 22.0468 7.64069 21.9839 7.39301 21.7947C7.14532 21.6055 7 21.3117 7 21V19H1C0.44772 19 0 18.5523 0 18V4.00001C0 3.44772 0.44772 3.00001 1 3.00001H7V1.00001C7 0.688338 7.14532 0.394488 7.39301 0.205298ZM9 19.6908L18 17.2362V4.7638L9 2.30926V19.6908ZM7 5.00001H2V17H7V5.00001ZM12 9C12.5523 9 13 9.4477 13 10V12C13 12.5523 12.5523 13 12 13C11.4477 13 11 12.5523 11 12V10C11 9.4477 11.4477 9 12 9Z" fill="black"/>
</svg>
