<svg width="20" height="20" viewBox="0 0 20 20" fill="none" xmlns="http://www.w3.org/2000/svg">
<path fill-rule="evenodd" clip-rule="evenodd" d="M9.00121 6.98117C9.00007 6.99389 8.99996 7.00016 8.99996 7.00016C8.99996 7.55244 8.55232 8 8 8C7.44771 8 7 7.55228 7 7C7 6.56589 7.15145 5.86505 7.57527 5.24697C8.03564 4.5756 8.8267 4 9.99999 4C11.1259 4 11.9261 4.49153 12.4116 5.1657C12.8602 5.78887 13 6.50664 13 7C13 8.3091 12.5154 9.2005 11.7829 10.1222C11.5525 10.4121 11.3244 10.7529 11.1489 11.0312C11.0625 11.1682 10.9916 11.2857 10.9428 11.3682C10.9183 11.4094 10.8996 11.4417 10.8872 11.4631L10.8736 11.4867L10.8706 11.4919M10.8706 11.4919C10.5986 11.9725 9.98819 12.1423 9.50763 11.8704C9.02687 11.5984 8.85765 10.9883 9.12965 10.5076L9.99926 10.9996C9.12965 10.5076 9.12965 10.5076 9.12965 10.5076L9.13213 10.5033L9.13731 10.4942L9.15563 10.4623C9.17126 10.4352 9.19372 10.3967 9.22197 10.3489C9.27848 10.2535 9.35911 10.1199 9.45713 9.9645C9.65026 9.6581 9.92226 9.2489 10.2171 8.8778C10.7931 8.1531 11 7.69092 11 7C11 6.82669 10.9398 6.54447 10.7885 6.3343C10.6739 6.17513 10.4741 6 9.99999 6C9.57336 6 9.36439 6.1744 9.22477 6.37803C9.14414 6.49551 9.08473 6.63083 9.04633 6.76065C9.0275 6.82427 9.01528 6.88119 9.00804 6.9268C9.00441 6.9494 9.00234 6.96768 9.00121 6.98117" fill="black"/>
<path d="M11 14C11 14.5523 10.5523 15 10 15C9.44774 15 9 14.5523 9 14C9 13.4477 9.44774 13 10 13C10.5523 13 11 13.4477 11 14Z" fill="black"/>
<path fill-rule="evenodd" clip-rule="evenodd" d="M9.99997 2C5.58171 2 1.99999 5.58172 1.99999 10C1.99999 14.4183 5.58171 18 9.99997 18C14.4182 18 18 14.4183 18 10C18 5.58172 14.4182 2 9.99997 2ZM0 10C0 4.47715 4.47715 0 9.99997 0C15.5229 0 20 4.47715 20 10C20 15.5228 15.5229 20 9.99997 20C4.47715 20 0 15.5228 0 10Z" fill="black"/>
</svg>
