<svg width="39" height="39" viewBox="0 0 39 39" fill="none" xmlns="http://www.w3.org/2000/svg">
<path d="M19.5 6.84074e-08C15.6432 6.84074e-08 11.8732 1.14365 8.6664 3.28633C5.45964 5.42903 2.96028 8.4745 1.48436 12.0377C0.00844534 15.6008 -0.377714 19.5216 0.374695 23.3042C1.1271 27.0868 2.98431 30.5613 5.71145 33.2886C8.43856 36.0157 11.9131 37.8729 15.6957 38.6254C19.4785 39.3777 23.3992 38.9916 26.9624 37.5156C30.5255 36.0397 33.571 33.5404 35.7137 30.3336C37.8565 27.1268 39 23.3567 39 19.5C39.0004 16.9392 38.4961 14.4033 37.5162 12.0374C36.5364 9.67146 35.1 7.52173 33.2892 5.71094C31.4783 3.90015 29.3286 2.4638 26.9626 1.48391C24.5967 0.504016 22.0609 -0.000214431 19.5 6.84074e-08ZM25.7002 29.5473C25.6271 29.7293 25.5161 29.8935 25.3743 30.0292C25.2328 30.1647 25.0637 30.2684 24.8787 30.3334C24.6936 30.3983 24.4968 30.4229 24.3017 30.4055C24.1063 30.3882 23.9169 30.3293 23.7463 30.2328L18.4526 26.1194L15.055 29.2539C14.9762 29.3122 14.884 29.3496 14.7869 29.3629C14.6898 29.3761 14.5909 29.3648 14.4993 29.3297L15.1506 23.5023L15.1715 23.5189L15.1848 23.4039C15.1848 23.4039 24.7106 14.7312 25.0986 14.3617C25.4915 13.9931 25.3619 13.9132 25.3619 13.9132C25.3843 13.4636 24.6569 13.9132 24.6569 13.9132L12.0354 22.033L6.77923 20.2429C6.77923 20.2429 5.97193 19.9534 5.89588 19.3167C5.81593 18.6849 6.80553 18.3417 6.80553 18.3417L27.7036 10.0395C27.7036 10.0395 29.4216 9.27413 29.4216 10.5417L25.7002 29.5473Z" fill="#1F1E45"/>
</svg>
