<svg width="39" height="39" viewBox="0 0 39 39" fill="none" xmlns="http://www.w3.org/2000/svg">
<path d="M25.4922 0H13.5281C2.59995 0 0 2.59995 0 13.5078V25.4719C0 36.3999 2.57973 39 13.5078 39H25.4719C36.4001 39 39 36.4203 39 25.4922V13.5281C39 2.59995 36.4203 0 25.4922 0ZM31.4843 27.8281H28.6406C27.564 27.8281 27.2392 26.9547 25.3094 25.0249C23.6235 23.4 22.9125 23.1968 22.4858 23.1968C21.8969 23.1968 21.7343 23.3592 21.7343 24.1718V26.7312C21.7343 27.4219 21.5108 27.8281 19.7032 27.8281C17.949 27.7103 16.2478 27.1773 14.7398 26.2733C13.2319 25.3691 11.9602 24.1197 11.0297 22.628C8.82055 19.8783 7.28346 16.6512 6.54067 13.2031C6.54067 12.7765 6.70312 12.3906 7.51567 12.3906H10.3594C11.0906 12.3906 11.3547 12.7156 11.6391 13.4672C13.0203 17.5297 15.3766 21.0641 16.3313 21.0641C16.6969 21.0641 16.8593 20.9017 16.8593 19.9875V15.803C16.7374 13.8938 15.7219 13.7312 15.7219 13.0406C15.7353 12.8584 15.8192 12.6886 15.9557 12.5673C16.0922 12.4459 16.2706 12.3825 16.4531 12.3906H20.9219C21.5313 12.3906 21.7343 12.6952 21.7343 13.4265V19.0733C21.7343 19.6829 21.9983 19.8859 22.1813 19.8859C22.5469 19.8859 22.8312 19.6829 23.5016 19.0125C24.9419 17.2559 26.1189 15.2989 26.9954 13.2031C27.0847 12.9509 27.2544 12.7349 27.478 12.5882C27.7019 12.4415 27.9675 12.3721 28.2344 12.3906H31.0781C31.9313 12.3906 32.1142 12.8171 31.9313 13.4265C30.8966 15.7437 29.6162 17.9433 28.1126 19.9875C27.8078 20.4547 27.6859 20.6985 28.1126 21.2468C28.3969 21.6735 29.3922 22.5061 30.0626 23.2984C31.0376 24.2709 31.847 25.3962 32.4593 26.6296C32.7031 27.4219 32.2969 27.8281 31.4843 27.8281Z" fill="#1F1E45"/>
</svg>
